<svg id="visual" viewBox="0 0 1920 1080" width="1920" height="1080" xmlns="http://www.w3.org/2000/svg" xmlns:xlink="http://www.w3.org/1999/xlink" version="1.1"><rect x="0" y="0" width="1920" height="1080" fill="#0f0e17"></rect><path d="M0 767L45.7 785.8C91.3 804.7 182.7 842.3 274.2 827.7C365.7 813 457.3 746 548.8 728.3C640.3 710.7 731.7 742.3 823 755.5C914.3 768.7 1005.7 763.3 1097 791C1188.3 818.7 1279.7 879.3 1371.2 904.2C1462.7 929 1554.3 918 1645.8 896.3C1737.3 874.7 1828.7 842.3 1874.3 826.2L1920 810L1920 1081L1874.3 1081C1828.7 1081 1737.3 1081 1645.8 1081C1554.3 1081 1462.7 1081 1371.2 1081C1279.7 1081 1188.3 1081 1097 1081C1005.7 1081 914.3 1081 823 1081C731.7 1081 640.3 1081 548.8 1081C457.3 1081 365.7 1081 274.2 1081C182.7 1081 91.3 1081 45.7 1081L0 1081Z" fill="#fffffe" stroke-linecap="round" stroke-linejoin="miter"></path></svg>