<svg id="visual" viewBox="0 0 1920 1080" width="1920" height="1080" xmlns="http://www.w3.org/2000/svg" xmlns:xlink="http://www.w3.org/1999/xlink" version="1.1"><rect x="0" y="0" width="1920" height="1080" fill="#fef6e4"></rect><path d="M0 727L45.7 735.8C91.3 744.7 182.7 762.3 274.2 788.8C365.7 815.3 457.3 850.7 548.8 836.2C640.3 821.7 731.7 757.3 823 733.2C914.3 709 1005.7 725 1097 734.8C1188.3 744.7 1279.7 748.3 1371.2 766.2C1462.7 784 1554.3 816 1645.8 803.5C1737.3 791 1828.7 734 1874.3 705.5L1920 677L1920 1081L1874.3 1081C1828.7 1081 1737.3 1081 1645.8 1081C1554.3 1081 1462.7 1081 1371.2 1081C1279.7 1081 1188.3 1081 1097 1081C1005.7 1081 914.3 1081 823 1081C731.7 1081 640.3 1081 548.8 1081C457.3 1081 365.7 1081 274.2 1081C182.7 1081 91.3 1081 45.7 1081L0 1081Z" fill="#f3d2c1" stroke-linecap="round" stroke-linejoin="miter"></path></svg>